<mxfile host="65bd71144e">
    <diagram name="Idea2" id="VJWBTAzsLUrrcgtxGZ60">
        <mxGraphModel dx="708" dy="1898" grid="1" gridSize="10" guides="1" tooltips="1" connect="1" arrows="1" fold="1" page="1" pageScale="1" pageWidth="827" pageHeight="1169" background="#ffffff" math="0" shadow="0">
            <root>
                <mxCell id="NLWVgeD0zKpLK-s3bGuY-0"/>
                <mxCell id="NLWVgeD0zKpLK-s3bGuY-1" parent="NLWVgeD0zKpLK-s3bGuY-0"/>
                <mxCell id="NLWVgeD0zKpLK-s3bGuY-2" value="AWS Cloud" style="points=[[0,0],[0.25,0],[0.5,0],[0.75,0],[1,0],[1,0.25],[1,0.5],[1,0.75],[1,1],[0.75,1],[0.5,1],[0.25,1],[0,1],[0,0.75],[0,0.5],[0,0.25]];outlineConnect=0;gradientColor=none;html=1;whiteSpace=wrap;fontSize=12;fontStyle=0;container=1;pointerEvents=0;collapsible=0;recursiveResize=0;shape=mxgraph.aws4.group;grIcon=mxgraph.aws4.group_aws_cloud_alt;strokeColor=#232F3E;fillColor=none;verticalAlign=top;align=left;spacingLeft=30;fontColor=#232F3E;dashed=0;" parent="NLWVgeD0zKpLK-s3bGuY-1" vertex="1">
                    <mxGeometry x="110" y="50" width="414" height="290" as="geometry"/>
                </mxCell>
                <mxCell id="NLWVgeD0zKpLK-s3bGuY-3" value="" style="fillColor=none;strokeColor=#5A6C86;dashed=1;verticalAlign=top;fontStyle=0;fontColor=#5A6C86;" parent="NLWVgeD0zKpLK-s3bGuY-2" vertex="1">
                    <mxGeometry x="80" y="194.5" width="200" height="70" as="geometry"/>
                </mxCell>
                <mxCell id="NLWVgeD0zKpLK-s3bGuY-4" value="" style="sketch=0;outlineConnect=0;fontColor=#232F3E;gradientColor=none;fillColor=#D45B07;strokeColor=none;dashed=0;verticalLabelPosition=bottom;verticalAlign=top;align=center;html=1;fontSize=12;fontStyle=0;aspect=fixed;pointerEvents=1;shape=mxgraph.aws4.container_1;" parent="NLWVgeD0zKpLK-s3bGuY-2" vertex="1">
                    <mxGeometry x="110" y="214.5" width="48" height="31" as="geometry"/>
                </mxCell>
                <mxCell id="NLWVgeD0zKpLK-s3bGuY-5" value="App" style="text;html=1;strokeColor=none;fillColor=none;align=center;verticalAlign=middle;whiteSpace=wrap;rounded=0;" parent="NLWVgeD0zKpLK-s3bGuY-2" vertex="1">
                    <mxGeometry x="104" y="244.5" width="60" height="20" as="geometry"/>
                </mxCell>
                <mxCell id="NLWVgeD0zKpLK-s3bGuY-9" style="edgeStyle=none;html=1;entryX=0.5;entryY=0;entryDx=0;entryDy=0;" parent="NLWVgeD0zKpLK-s3bGuY-2" source="NLWVgeD0zKpLK-s3bGuY-7" target="NLWVgeD0zKpLK-s3bGuY-3" edge="1">
                    <mxGeometry relative="1" as="geometry"/>
                </mxCell>
                <mxCell id="NLWVgeD0zKpLK-s3bGuY-6" value="" style="group" parent="NLWVgeD0zKpLK-s3bGuY-2" vertex="1" connectable="0">
                    <mxGeometry x="150" y="100" width="60" height="64" as="geometry"/>
                </mxCell>
                <mxCell id="NLWVgeD0zKpLK-s3bGuY-7" value="ALB&lt;br&gt;(External)" style="text;html=1;strokeColor=none;fillColor=none;align=center;verticalAlign=middle;whiteSpace=wrap;rounded=0;" parent="NLWVgeD0zKpLK-s3bGuY-6" vertex="1">
                    <mxGeometry y="58" width="60" height="16" as="geometry"/>
                </mxCell>
                <mxCell id="NLWVgeD0zKpLK-s3bGuY-8" value="" style="sketch=0;outlineConnect=0;fontColor=#232F3E;gradientColor=none;fillColor=#4D27AA;strokeColor=none;dashed=0;verticalLabelPosition=bottom;verticalAlign=top;align=center;html=1;fontSize=12;fontStyle=0;aspect=fixed;pointerEvents=1;shape=mxgraph.aws4.application_load_balancer;" parent="NLWVgeD0zKpLK-s3bGuY-6" vertex="1">
                    <mxGeometry x="6" width="48" height="48" as="geometry"/>
                </mxCell>
                <mxCell id="1yx4ggXPlpIA1d6w07hq-10" style="edgeStyle=none;html=1;fontFamily=Helvetica;fontSize=12;fontColor=#232F3E;" parent="NLWVgeD0zKpLK-s3bGuY-2" source="1yx4ggXPlpIA1d6w07hq-0" target="1yx4ggXPlpIA1d6w07hq-7" edge="1">
                    <mxGeometry relative="1" as="geometry"/>
                </mxCell>
                <mxCell id="1yx4ggXPlpIA1d6w07hq-0" value="" style="sketch=0;points=[[0,0,0],[0.25,0,0],[0.5,0,0],[0.75,0,0],[1,0,0],[0,1,0],[0.25,1,0],[0.5,1,0],[0.75,1,0],[1,1,0],[0,0.25,0],[0,0.5,0],[0,0.75,0],[1,0.25,0],[1,0.5,0],[1,0.75,0]];outlineConnect=0;fontColor=#232F3E;gradientColor=#945DF2;gradientDirection=north;fillColor=#5A30B5;strokeColor=#ffffff;dashed=0;verticalLabelPosition=bottom;verticalAlign=top;align=center;html=1;fontSize=12;fontStyle=0;aspect=fixed;shape=mxgraph.aws4.resourceIcon;resIcon=mxgraph.aws4.api_gateway;fontFamily=Helvetica;" parent="NLWVgeD0zKpLK-s3bGuY-2" vertex="1">
                    <mxGeometry x="347" y="100" width="48" height="48" as="geometry"/>
                </mxCell>
                <mxCell id="1yx4ggXPlpIA1d6w07hq-4" value="API Gateway&lt;br&gt;(HTTP API)" style="text;html=1;strokeColor=none;fillColor=none;align=center;verticalAlign=middle;whiteSpace=wrap;rounded=0;" parent="NLWVgeD0zKpLK-s3bGuY-2" vertex="1">
                    <mxGeometry x="334" y="160" width="74" height="16" as="geometry"/>
                </mxCell>
                <mxCell id="1yx4ggXPlpIA1d6w07hq-11" style="edgeStyle=none;html=1;fontFamily=Helvetica;fontSize=12;fontColor=#232F3E;startArrow=none;" parent="NLWVgeD0zKpLK-s3bGuY-2" source="1" target="NLWVgeD0zKpLK-s3bGuY-8" edge="1">
                    <mxGeometry relative="1" as="geometry"/>
                </mxCell>
                <mxCell id="1yx4ggXPlpIA1d6w07hq-7" value="" style="sketch=0;outlineConnect=0;fontColor=#232F3E;gradientColor=none;strokeColor=#232F3E;fillColor=#ffffff;dashed=0;verticalLabelPosition=bottom;verticalAlign=top;align=center;html=1;fontSize=12;fontStyle=0;aspect=fixed;shape=mxgraph.aws4.resourceIcon;resIcon=mxgraph.aws4.elastic_network_interface;fontFamily=Helvetica;" parent="NLWVgeD0zKpLK-s3bGuY-2" vertex="1">
                    <mxGeometry x="304" y="109" width="30" height="30" as="geometry"/>
                </mxCell>
                <mxCell id="1yx4ggXPlpIA1d6w07hq-12" value="" style="sketch=0;points=[[0,0,0],[0.25,0,0],[0.5,0,0],[0.75,0,0],[1,0,0],[0,1,0],[0.25,1,0],[0.5,1,0],[0.75,1,0],[1,1,0],[0,0.25,0],[0,0.5,0],[0,0.75,0],[1,0.25,0],[1,0.5,0],[1,0.75,0]];outlineConnect=0;fontColor=#232F3E;gradientColor=#F54749;gradientDirection=north;fillColor=#C7131F;strokeColor=#ffffff;dashed=0;verticalLabelPosition=bottom;verticalAlign=top;align=center;html=1;fontSize=12;fontStyle=0;aspect=fixed;shape=mxgraph.aws4.resourceIcon;resIcon=mxgraph.aws4.cognito;fontFamily=Helvetica;" parent="NLWVgeD0zKpLK-s3bGuY-2" vertex="1">
                    <mxGeometry x="345" y="10" width="50" height="50" as="geometry"/>
                </mxCell>
                <mxCell id="1yx4ggXPlpIA1d6w07hq-18" value="" style="sketch=0;outlineConnect=0;fontColor=#232F3E;gradientColor=none;fillColor=#D45B07;strokeColor=none;dashed=0;verticalLabelPosition=bottom;verticalAlign=top;align=center;html=1;fontSize=12;fontStyle=0;aspect=fixed;pointerEvents=1;shape=mxgraph.aws4.container_1;" parent="NLWVgeD0zKpLK-s3bGuY-2" vertex="1">
                    <mxGeometry x="206" y="214.5" width="48" height="31" as="geometry"/>
                </mxCell>
                <mxCell id="1yx4ggXPlpIA1d6w07hq-19" value="App" style="text;html=1;strokeColor=none;fillColor=none;align=center;verticalAlign=middle;whiteSpace=wrap;rounded=0;" parent="NLWVgeD0zKpLK-s3bGuY-2" vertex="1">
                    <mxGeometry x="200" y="244.5" width="60" height="20" as="geometry"/>
                </mxCell>
                <mxCell id="1yx4ggXPlpIA1d6w07hq-20" value="&lt;br&gt;Cognito" style="text;html=1;strokeColor=none;fillColor=none;align=center;verticalAlign=middle;whiteSpace=wrap;rounded=0;dashed=0;sketch=0;fontFamily=Helvetica;fontSize=12;fontColor=#232F3E;" parent="NLWVgeD0zKpLK-s3bGuY-2" vertex="1">
                    <mxGeometry x="341" y="60" width="60" height="10" as="geometry"/>
                </mxCell>
                <mxCell id="2" value="" style="edgeStyle=none;html=1;fontFamily=Helvetica;fontSize=12;fontColor=#232F3E;endArrow=none;" edge="1" parent="NLWVgeD0zKpLK-s3bGuY-2" source="1yx4ggXPlpIA1d6w07hq-7" target="1">
                    <mxGeometry relative="1" as="geometry">
                        <mxPoint x="414" y="174" as="sourcePoint"/>
                        <mxPoint x="314" y="174" as="targetPoint"/>
                    </mxGeometry>
                </mxCell>
                <mxCell id="1" value="" style="sketch=0;outlineConnect=0;fontColor=#232F3E;gradientColor=none;fillColor=#4D27AA;strokeColor=none;dashed=0;verticalLabelPosition=bottom;verticalAlign=top;align=center;html=1;fontSize=12;fontStyle=0;aspect=fixed;pointerEvents=1;shape=mxgraph.aws4.network_load_balancer;" vertex="1" parent="NLWVgeD0zKpLK-s3bGuY-2">
                    <mxGeometry x="232" y="100" width="48" height="48" as="geometry"/>
                </mxCell>
                <mxCell id="3" value="NLB (Internal)" style="text;html=1;strokeColor=none;fillColor=none;align=center;verticalAlign=middle;whiteSpace=wrap;rounded=0;" vertex="1" parent="NLWVgeD0zKpLK-s3bGuY-2">
                    <mxGeometry x="226" y="160" width="60" height="16" as="geometry"/>
                </mxCell>
                <mxCell id="1yx4ggXPlpIA1d6w07hq-3" style="edgeStyle=none;html=1;fontFamily=Helvetica;fontSize=12;fontColor=#232F3E;" parent="NLWVgeD0zKpLK-s3bGuY-1" source="1yx4ggXPlpIA1d6w07hq-1" target="NLWVgeD0zKpLK-s3bGuY-8" edge="1">
                    <mxGeometry relative="1" as="geometry"/>
                </mxCell>
                <mxCell id="1yx4ggXPlpIA1d6w07hq-1" value="社内ネットワーク" style="fillColor=none;strokeColor=#5A6C86;dashed=1;verticalAlign=top;fontStyle=0;fontColor=#5A6C86;sketch=0;fontFamily=Helvetica;fontSize=12;html=1;" parent="NLWVgeD0zKpLK-s3bGuY-1" vertex="1">
                    <mxGeometry x="235" y="-70" width="110" height="100" as="geometry"/>
                </mxCell>
                <mxCell id="1yx4ggXPlpIA1d6w07hq-2" value="" style="sketch=0;outlineConnect=0;fontColor=#232F3E;gradientColor=none;fillColor=#232F3D;strokeColor=none;dashed=0;verticalLabelPosition=bottom;verticalAlign=top;align=center;html=1;fontSize=12;fontStyle=0;aspect=fixed;pointerEvents=1;shape=mxgraph.aws4.user;fontFamily=Helvetica;" parent="NLWVgeD0zKpLK-s3bGuY-1" vertex="1">
                    <mxGeometry x="266" y="-30" width="48" height="48" as="geometry"/>
                </mxCell>
                <mxCell id="1yx4ggXPlpIA1d6w07hq-16" style="edgeStyle=none;html=1;entryX=1;entryY=0.5;entryDx=0;entryDy=0;entryPerimeter=0;fontFamily=Helvetica;fontSize=12;fontColor=#232F3E;" parent="NLWVgeD0zKpLK-s3bGuY-1" source="1yx4ggXPlpIA1d6w07hq-13" target="1yx4ggXPlpIA1d6w07hq-0" edge="1">
                    <mxGeometry relative="1" as="geometry"/>
                </mxCell>
                <mxCell id="1yx4ggXPlpIA1d6w07hq-13" value="" style="sketch=0;outlineConnect=0;fontColor=#232F3E;gradientColor=none;fillColor=#232F3D;strokeColor=none;dashed=0;verticalLabelPosition=bottom;verticalAlign=top;align=center;html=1;fontSize=12;fontStyle=0;aspect=fixed;pointerEvents=1;shape=mxgraph.aws4.user;fontFamily=Helvetica;" parent="NLWVgeD0zKpLK-s3bGuY-1" vertex="1">
                    <mxGeometry x="610" y="150" width="48" height="48" as="geometry"/>
                </mxCell>
                <mxCell id="1yx4ggXPlpIA1d6w07hq-14" value="" style="endArrow=classic;html=1;fontFamily=Helvetica;fontSize=12;fontColor=#232F3E;entryX=1;entryY=0.5;entryDx=0;entryDy=0;entryPerimeter=0;" parent="NLWVgeD0zKpLK-s3bGuY-1" target="1yx4ggXPlpIA1d6w07hq-12" edge="1">
                    <mxGeometry width="50" height="50" relative="1" as="geometry">
                        <mxPoint x="640" y="140" as="sourcePoint"/>
                        <mxPoint x="550" y="150" as="targetPoint"/>
                    </mxGeometry>
                </mxCell>
                <mxCell id="1yx4ggXPlpIA1d6w07hq-15" value="① 認証・トークン取得" style="text;html=1;strokeColor=none;fillColor=none;align=center;verticalAlign=middle;whiteSpace=wrap;rounded=0;dashed=0;sketch=0;fontFamily=Helvetica;fontSize=12;fontColor=#232F3E;" parent="NLWVgeD0zKpLK-s3bGuY-1" vertex="1">
                    <mxGeometry x="590" y="90" width="130" height="30" as="geometry"/>
                </mxCell>
                <mxCell id="1yx4ggXPlpIA1d6w07hq-17" value="② 検証" style="text;html=1;strokeColor=none;fillColor=none;align=center;verticalAlign=middle;whiteSpace=wrap;rounded=0;dashed=0;sketch=0;fontFamily=Helvetica;fontSize=12;fontColor=#232F3E;" parent="NLWVgeD0zKpLK-s3bGuY-1" vertex="1">
                    <mxGeometry x="524" y="140" width="80" height="30" as="geometry"/>
                </mxCell>
                <mxCell id="1yx4ggXPlpIA1d6w07hq-21" value="・社内ネットワークの GIP および&lt;br&gt;・API Gateway (VPC Link) からの通信を許可" style="text;html=1;strokeColor=none;fillColor=none;align=left;verticalAlign=middle;whiteSpace=wrap;rounded=0;dashed=0;sketch=0;fontFamily=Helvetica;fontSize=12;fontColor=#232F3E;fontStyle=1" parent="NLWVgeD0zKpLK-s3bGuY-1" vertex="1">
                    <mxGeometry x="1" y="180" width="267" height="30" as="geometry"/>
                </mxCell>
            </root>
        </mxGraphModel>
    </diagram>
    <diagram name="Idea1" id="jKl44OP_ig9cnakYiYtc">
        <mxGraphModel dx="708" dy="729" grid="1" gridSize="10" guides="1" tooltips="1" connect="1" arrows="1" fold="1" page="1" pageScale="1" pageWidth="827" pageHeight="1169" background="#ffffff" math="0" shadow="0">
            <root>
                <mxCell id="otdSO_qmdSC4bzFWus95-0"/>
                <mxCell id="otdSO_qmdSC4bzFWus95-1" parent="otdSO_qmdSC4bzFWus95-0"/>
                <mxCell id="otdSO_qmdSC4bzFWus95-2" value="AWS Cloud" style="points=[[0,0],[0.25,0],[0.5,0],[0.75,0],[1,0],[1,0.25],[1,0.5],[1,0.75],[1,1],[0.75,1],[0.5,1],[0.25,1],[0,1],[0,0.75],[0,0.5],[0,0.25]];outlineConnect=0;gradientColor=none;html=1;whiteSpace=wrap;fontSize=12;fontStyle=0;container=1;pointerEvents=0;collapsible=0;recursiveResize=0;shape=mxgraph.aws4.group;grIcon=mxgraph.aws4.group_aws_cloud_alt;strokeColor=#232F3E;fillColor=none;verticalAlign=top;align=left;spacingLeft=30;fontColor=#232F3E;dashed=0;" vertex="1" parent="otdSO_qmdSC4bzFWus95-1">
                    <mxGeometry x="110" y="50" width="350" height="260" as="geometry"/>
                </mxCell>
                <mxCell id="otdSO_qmdSC4bzFWus95-3" value="" style="fillColor=none;strokeColor=#5A6C86;dashed=1;verticalAlign=top;fontStyle=0;fontColor=#5A6C86;" vertex="1" parent="otdSO_qmdSC4bzFWus95-2">
                    <mxGeometry x="40" y="150.5" width="200" height="70" as="geometry"/>
                </mxCell>
                <mxCell id="otdSO_qmdSC4bzFWus95-4" value="" style="sketch=0;outlineConnect=0;fontColor=#232F3E;gradientColor=none;fillColor=#D45B07;strokeColor=none;dashed=0;verticalLabelPosition=bottom;verticalAlign=top;align=center;html=1;fontSize=12;fontStyle=0;aspect=fixed;pointerEvents=1;shape=mxgraph.aws4.container_1;" vertex="1" parent="otdSO_qmdSC4bzFWus95-2">
                    <mxGeometry x="70" y="170" width="48" height="31" as="geometry"/>
                </mxCell>
                <mxCell id="otdSO_qmdSC4bzFWus95-5" value="App" style="text;html=1;strokeColor=none;fillColor=none;align=center;verticalAlign=middle;whiteSpace=wrap;rounded=0;" vertex="1" parent="otdSO_qmdSC4bzFWus95-2">
                    <mxGeometry x="64" y="200" width="60" height="20" as="geometry"/>
                </mxCell>
                <mxCell id="otdSO_qmdSC4bzFWus95-6" value="" style="group" vertex="1" connectable="0" parent="otdSO_qmdSC4bzFWus95-2">
                    <mxGeometry x="110" y="60" width="60" height="64" as="geometry"/>
                </mxCell>
                <mxCell id="otdSO_qmdSC4bzFWus95-7" value="ALB" style="text;html=1;strokeColor=none;fillColor=none;align=center;verticalAlign=middle;whiteSpace=wrap;rounded=0;" vertex="1" parent="otdSO_qmdSC4bzFWus95-6">
                    <mxGeometry y="48" width="60" height="16" as="geometry"/>
                </mxCell>
                <mxCell id="otdSO_qmdSC4bzFWus95-8" value="" style="sketch=0;outlineConnect=0;fontColor=#232F3E;gradientColor=none;fillColor=#4D27AA;strokeColor=none;dashed=0;verticalLabelPosition=bottom;verticalAlign=top;align=center;html=1;fontSize=12;fontStyle=0;aspect=fixed;pointerEvents=1;shape=mxgraph.aws4.application_load_balancer;" vertex="1" parent="otdSO_qmdSC4bzFWus95-6">
                    <mxGeometry x="6" width="48" height="48" as="geometry"/>
                </mxCell>
                <mxCell id="otdSO_qmdSC4bzFWus95-9" style="edgeStyle=none;html=1;entryX=0.5;entryY=0;entryDx=0;entryDy=0;" edge="1" parent="otdSO_qmdSC4bzFWus95-2" source="otdSO_qmdSC4bzFWus95-7" target="otdSO_qmdSC4bzFWus95-3">
                    <mxGeometry relative="1" as="geometry"/>
                </mxCell>
                <mxCell id="otdSO_qmdSC4bzFWus95-11" value="" style="sketch=0;outlineConnect=0;fontColor=#232F3E;gradientColor=none;fillColor=#D45B07;strokeColor=none;dashed=0;verticalLabelPosition=bottom;verticalAlign=top;align=center;html=1;fontSize=12;fontStyle=0;aspect=fixed;pointerEvents=1;shape=mxgraph.aws4.container_1;" vertex="1" parent="otdSO_qmdSC4bzFWus95-2">
                    <mxGeometry x="161" y="170" width="48" height="31" as="geometry"/>
                </mxCell>
                <mxCell id="otdSO_qmdSC4bzFWus95-12" value="App" style="text;html=1;strokeColor=none;fillColor=none;align=center;verticalAlign=middle;whiteSpace=wrap;rounded=0;" vertex="1" parent="otdSO_qmdSC4bzFWus95-2">
                    <mxGeometry x="155" y="200" width="60" height="20" as="geometry"/>
                </mxCell>
                <mxCell id="VnpXtGA0Br0gOT38j2Qb-8" style="edgeStyle=none;html=1;fontFamily=Helvetica;fontSize=12;fontColor=#232F3E;" edge="1" parent="otdSO_qmdSC4bzFWus95-2" source="VnpXtGA0Br0gOT38j2Qb-5" target="otdSO_qmdSC4bzFWus95-8">
                    <mxGeometry relative="1" as="geometry"/>
                </mxCell>
                <mxCell id="VnpXtGA0Br0gOT38j2Qb-5" value="" style="fillColor=none;strokeColor=#5A6C86;dashed=1;verticalAlign=top;fontStyle=0;fontColor=#5A6C86;" vertex="1" parent="otdSO_qmdSC4bzFWus95-2">
                    <mxGeometry x="238" y="40" width="90" height="90" as="geometry"/>
                </mxCell>
                <mxCell id="VnpXtGA0Br0gOT38j2Qb-4" value="" style="sketch=0;points=[[0,0,0],[0.25,0,0],[0.5,0,0],[0.75,0,0],[1,0,0],[0,1,0],[0.25,1,0],[0.5,1,0],[0.75,1,0],[1,1,0],[0,0.25,0],[0,0.5,0],[0,0.75,0],[1,0.25,0],[1,0.5,0],[1,0.75,0]];outlineConnect=0;fontColor=#232F3E;gradientColor=#FF4F8B;gradientDirection=north;fillColor=#BC1356;strokeColor=#ffffff;dashed=0;verticalLabelPosition=bottom;verticalAlign=top;align=center;html=1;fontSize=12;fontStyle=0;aspect=fixed;shape=mxgraph.aws4.resourceIcon;resIcon=mxgraph.aws4.step_functions;fontFamily=Helvetica;" vertex="1" parent="otdSO_qmdSC4bzFWus95-2">
                    <mxGeometry x="237" y="39" width="30" height="30" as="geometry"/>
                </mxCell>
                <mxCell id="VnpXtGA0Br0gOT38j2Qb-2" value="" style="sketch=0;outlineConnect=0;fontColor=#232F3E;gradientColor=none;fillColor=#D45B07;strokeColor=none;dashed=0;verticalLabelPosition=bottom;verticalAlign=top;align=center;html=1;fontSize=12;fontStyle=0;aspect=fixed;pointerEvents=1;shape=mxgraph.aws4.container_1;" vertex="1" parent="otdSO_qmdSC4bzFWus95-2">
                    <mxGeometry x="261" y="80" width="48" height="31" as="geometry"/>
                </mxCell>
                <mxCell id="VnpXtGA0Br0gOT38j2Qb-3" value="Test Automation" style="text;html=1;strokeColor=none;fillColor=none;align=center;verticalAlign=middle;whiteSpace=wrap;rounded=0;" vertex="1" parent="otdSO_qmdSC4bzFWus95-2">
                    <mxGeometry x="236" y="111" width="94" height="20" as="geometry"/>
                </mxCell>
                <mxCell id="VnpXtGA0Br0gOT38j2Qb-7" style="edgeStyle=none;html=1;entryX=1;entryY=0.5;entryDx=0;entryDy=0;fontFamily=Helvetica;fontSize=12;fontColor=#232F3E;" edge="1" parent="otdSO_qmdSC4bzFWus95-1" source="VnpXtGA0Br0gOT38j2Qb-6" target="VnpXtGA0Br0gOT38j2Qb-5">
                    <mxGeometry relative="1" as="geometry"/>
                </mxCell>
                <mxCell id="VnpXtGA0Br0gOT38j2Qb-6" value="" style="sketch=0;outlineConnect=0;fontColor=#232F3E;gradientColor=none;fillColor=#232F3D;strokeColor=none;dashed=0;verticalLabelPosition=bottom;verticalAlign=top;align=center;html=1;fontSize=12;fontStyle=0;aspect=fixed;pointerEvents=1;shape=mxgraph.aws4.user;fontFamily=Helvetica;" vertex="1" parent="otdSO_qmdSC4bzFWus95-1">
                    <mxGeometry x="510" y="111" width="48" height="48" as="geometry"/>
                </mxCell>
                <mxCell id="VnpXtGA0Br0gOT38j2Qb-9" value="IAMによる権限で呼び出し" style="text;html=1;strokeColor=none;fillColor=none;align=center;verticalAlign=middle;whiteSpace=wrap;rounded=0;dashed=0;sketch=0;fontFamily=Helvetica;fontSize=12;fontColor=#232F3E;" vertex="1" parent="otdSO_qmdSC4bzFWus95-1">
                    <mxGeometry x="470" y="80" width="150" height="30" as="geometry"/>
                </mxCell>
            </root>
        </mxGraphModel>
    </diagram>
    <diagram id="drD_karGRWGbyavy319E" name="Base">
        <mxGraphModel dx="514" dy="354" grid="1" gridSize="10" guides="1" tooltips="1" connect="1" arrows="1" fold="1" page="1" pageScale="1" pageWidth="827" pageHeight="1169" background="#ffffff" math="0" shadow="0">
            <root>
                <mxCell id="0"/>
                <mxCell id="1" parent="0"/>
                <mxCell id="2" value="AWS Cloud" style="points=[[0,0],[0.25,0],[0.5,0],[0.75,0],[1,0],[1,0.25],[1,0.5],[1,0.75],[1,1],[0.75,1],[0.5,1],[0.25,1],[0,1],[0,0.75],[0,0.5],[0,0.25]];outlineConnect=0;gradientColor=none;html=1;whiteSpace=wrap;fontSize=12;fontStyle=0;container=1;pointerEvents=0;collapsible=0;recursiveResize=0;shape=mxgraph.aws4.group;grIcon=mxgraph.aws4.group_aws_cloud_alt;strokeColor=#232F3E;fillColor=none;verticalAlign=top;align=left;spacingLeft=30;fontColor=#232F3E;dashed=0;" parent="1" vertex="1">
                    <mxGeometry x="110" y="50" width="280" height="230" as="geometry"/>
                </mxCell>
                <mxCell id="8" value="" style="fillColor=none;strokeColor=#5A6C86;dashed=1;verticalAlign=top;fontStyle=0;fontColor=#5A6C86;" parent="2" vertex="1">
                    <mxGeometry x="40" y="120.5" width="200" height="70" as="geometry"/>
                </mxCell>
                <mxCell id="6" value="" style="sketch=0;outlineConnect=0;fontColor=#232F3E;gradientColor=none;fillColor=#D45B07;strokeColor=none;dashed=0;verticalLabelPosition=bottom;verticalAlign=top;align=center;html=1;fontSize=12;fontStyle=0;aspect=fixed;pointerEvents=1;shape=mxgraph.aws4.container_1;" parent="2" vertex="1">
                    <mxGeometry x="70" y="140" width="48" height="31" as="geometry"/>
                </mxCell>
                <mxCell id="9" value="App" style="text;html=1;strokeColor=none;fillColor=none;align=center;verticalAlign=middle;whiteSpace=wrap;rounded=0;" parent="2" vertex="1">
                    <mxGeometry x="64" y="170" width="60" height="20" as="geometry"/>
                </mxCell>
                <mxCell id="14" value="" style="group" vertex="1" connectable="0" parent="2">
                    <mxGeometry x="110" y="30" width="60" height="64" as="geometry"/>
                </mxCell>
                <mxCell id="11" value="ALB" style="text;html=1;strokeColor=none;fillColor=none;align=center;verticalAlign=middle;whiteSpace=wrap;rounded=0;" vertex="1" parent="14">
                    <mxGeometry y="48" width="60" height="16" as="geometry"/>
                </mxCell>
                <mxCell id="12" value="" style="sketch=0;outlineConnect=0;fontColor=#232F3E;gradientColor=none;fillColor=#4D27AA;strokeColor=none;dashed=0;verticalLabelPosition=bottom;verticalAlign=top;align=center;html=1;fontSize=12;fontStyle=0;aspect=fixed;pointerEvents=1;shape=mxgraph.aws4.application_load_balancer;" vertex="1" parent="14">
                    <mxGeometry x="6" width="48" height="48" as="geometry"/>
                </mxCell>
                <mxCell id="19" style="edgeStyle=none;html=1;entryX=0.5;entryY=0;entryDx=0;entryDy=0;" edge="1" parent="2" source="11" target="8">
                    <mxGeometry relative="1" as="geometry"/>
                </mxCell>
                <mxCell id="21" value="" style="sketch=0;outlineConnect=0;fontColor=#232F3E;gradientColor=none;strokeColor=#232F3E;fillColor=#ffffff;dashed=0;verticalLabelPosition=bottom;verticalAlign=top;align=center;html=1;fontSize=12;fontStyle=0;aspect=fixed;shape=mxgraph.aws4.resourceIcon;resIcon=mxgraph.aws4.elastic_network_interface;" vertex="1" parent="2">
                    <mxGeometry x="170" y="40" width="30" height="30" as="geometry"/>
                </mxCell>
                <mxCell id="24" value="" style="sketch=0;outlineConnect=0;fontColor=#232F3E;gradientColor=none;fillColor=#D45B07;strokeColor=none;dashed=0;verticalLabelPosition=bottom;verticalAlign=top;align=center;html=1;fontSize=12;fontStyle=0;aspect=fixed;pointerEvents=1;shape=mxgraph.aws4.container_1;" vertex="1" parent="2">
                    <mxGeometry x="161" y="140" width="48" height="31" as="geometry"/>
                </mxCell>
                <mxCell id="25" value="App" style="text;html=1;strokeColor=none;fillColor=none;align=center;verticalAlign=middle;whiteSpace=wrap;rounded=0;" vertex="1" parent="2">
                    <mxGeometry x="155" y="170" width="60" height="20" as="geometry"/>
                </mxCell>
                <mxCell id="20" value="特定のIPアドレスのインバウンドを許可" style="shape=callout;whiteSpace=wrap;html=1;perimeter=calloutPerimeter;position2=0.25;" vertex="1" parent="1">
                    <mxGeometry x="250" y="10" width="120" height="80" as="geometry"/>
                </mxCell>
            </root>
        </mxGraphModel>
    </diagram>
</mxfile>